<svg width="36" height="32" viewBox="0 0 36 32" fill="none" xmlns="http://www.w3.org/2000/svg">
<path d="M24.3281 12.5898C24.2944 12.5898 24.3619 12.5923 24.3281 12.5898V12.5898ZM20.6082 6.73429C21.2014 6.23317 22.0887 6.30784 22.5899 6.90114L24.5152 9.18025L25.5047 8.3031C26.086 7.78792 26.9748 7.8415 27.4899 8.4227C28.005 9.00391 27.9515 9.89266 27.3703 10.4078L25.3029 12.2402C25.0449 12.469 24.6707 12.5898 24.3282 12.5898C23.9063 12.5898 23.5403 12.3847 23.2959 12.0953L20.4414 8.71605C19.9402 8.12275 20.0149 7.23548 20.6082 6.73429V6.73429ZM20.6082 14.6093C21.2014 14.1082 22.0887 14.1828 22.5899 14.7761L24.5152 17.0552L25.5047 16.1781C26.086 15.6629 26.9748 15.7165 27.4899 16.2977C28.005 16.8789 27.9515 17.7677 27.3703 18.2828L25.3029 20.1153C25.0449 20.344 24.6707 20.4648 24.3282 20.4648C23.9063 20.4648 23.5403 20.2597 23.2959 19.9703L20.4414 16.591C19.9402 15.9978 20.0149 15.1105 20.6082 14.6093V14.6093ZM9.84375 8.23476H17.1562C17.9329 8.23476 18.5625 8.86434 18.5625 9.64101C18.5625 10.4177 17.9329 11.0473 17.1562 11.0473H9.84375C9.06708 11.0473 8.4375 10.4177 8.4375 9.64101C8.4375 8.86434 9.06708 8.23476 9.84375 8.23476ZM0 23.9805C0 27.8575 3.15415 31.0117 7.03125 31.0117H28.9688C32.8459 31.0117 36 27.8575 36 23.9805C36 23.2038 35.3704 22.5742 34.5938 22.5742H33.1875V2.39453C33.1875 1.61786 32.5579 0.988281 31.7812 0.988281H4.21875C3.44208 0.988281 2.8125 1.61786 2.8125 2.39453V22.5742H1.40625C0.629578 22.5742 0 23.2038 0 23.9805ZM30.375 22.5742H5.625V3.80078H30.375V22.5742ZM3.05346 25.3867H32.9465C32.3661 27.0237 30.8021 28.1992 28.9688 28.1992H7.03125C5.19785 28.1992 3.63389 27.0237 3.05346 25.3867ZM9.84375 16.0394H17.1562C17.9329 16.0394 18.5625 16.669 18.5625 17.4457C18.5625 18.2224 17.9329 18.8519 17.1562 18.8519H9.84375C9.06708 18.8519 8.4375 18.2224 8.4375 17.4457C8.4375 16.669 9.06708 16.0394 9.84375 16.0394Z" fill="white"/>
</svg>
