<svg width="36" height="30" viewBox="0 0 36 30" fill="none" xmlns="http://www.w3.org/2000/svg">
<path d="M17.7188 23.4375H12.6562C11.8796 23.4375 11.25 22.8079 11.25 22.0312C11.25 21.2546 11.8796 20.625 12.6562 20.625H17.7188C18.4954 20.625 19.125 21.2546 19.125 22.0312C19.125 22.8079 18.4954 23.4375 17.7188 23.4375ZM1.40625 0.9375H28.9688C29.7454 0.9375 30.375 1.56708 30.375 2.34375C30.375 3.12042 29.7454 3.75 28.9688 3.75H2.8125V22.0312C2.8125 22.8079 2.18292 23.4375 1.40625 23.4375C0.629578 23.4375 0 22.8079 0 22.0312V2.34375C0 1.56708 0.629578 0.9375 1.40625 0.9375ZM28.9688 23.4375H23.3438C22.5671 23.4375 21.9375 22.8079 21.9375 22.0312V16.4062C21.9375 15.6296 22.5671 15 23.3438 15H28.9688C29.7454 15 30.375 15.6296 30.375 16.4062V22.0312C30.375 22.8079 29.7454 23.4375 28.9688 23.4375ZM27.5625 17.8125H24.75V20.625H27.5625V17.8125ZM7.03125 6.5625H34.5938C35.3704 6.5625 36 7.19208 36 7.96875V27.6562C36 28.4329 35.3704 29.0625 34.5938 29.0625H7.03125C6.25458 29.0625 5.625 28.4329 5.625 27.6562V7.96875C5.625 7.19208 6.25458 6.5625 7.03125 6.5625ZM8.4375 26.25H33.1875V9.375H8.4375V26.25Z" fill="white"/>
</svg>
