<svg width="296" height="294" viewBox="0 0 296 294" fill="none" xmlns="http://www.w3.org/2000/svg">
<path d="M181.5 218C231.222 218 271 177.512 271 128.5C271 78.778 230.512 39 181.5 39C131.778 39 92 79.4883 92 128.5C92 177.512 132.488 218 181.5 218Z" fill="url(#paint0_linear_55_2750)" fill-opacity="0.8"/>
<g filter="url(#filter0_bi_55_2750)">
<path d="M150.526 294C227.589 294 290 231.536 290 154.526C290 77.4634 227.537 15 150.526 15C73.4635 15 11 77.4634 11 154.526C11.0521 231.536 73.5156 294 150.526 294Z" fill="#D1E8F7" fill-opacity="0.04"/>
</g>
<path d="M150.52 255.815C206.591 255.815 252.002 210.408 252.002 154.426C252.002 98.4068 206.553 53 150.52 53C94.4487 53 49 98.4068 49 154.426C49.0379 210.408 94.4867 255.815 150.52 255.815Z" stroke="#D1E8F7" stroke-opacity="0.5" stroke-miterlimit="10"/>
<path d="M34.0395 77.5588C36.6727 77.5588 38.7792 75.4146 38.7792 72.819C38.7792 70.1859 36.6351 68.0793 34.0395 68.0793C31.4063 68.0793 29.2998 70.2235 29.2998 72.819C29.2998 75.4146 31.444 77.5588 34.0395 77.5588Z" fill="#6526AC"/>
<path d="M192.325 67.7882C196.395 67.7882 199.65 64.6695 199.65 60.8941C199.65 57.0641 196.336 54 192.325 54C188.256 54 185.001 57.1188 185.001 60.8941C184.943 64.6695 188.256 67.7882 192.325 67.7882Z" fill="#73FFF2"/>
<path d="M102.5 29C106.111 29 109 26.2857 109 23C109 19.6667 106.06 17 102.5 17C98.8894 17 96.0007 19.7143 96.0007 23C95.9491 26.2857 98.8894 29 102.5 29Z" fill="white" fill-opacity="0.2"/>
<path d="M102.5 29C106.111 29 109 26.2857 109 23C109 19.6667 106.06 17 102.5 17C98.8894 17 96.0007 19.7143 96.0007 23C95.9491 26.2857 98.8894 29 102.5 29Z" fill="url(#paint1_linear_55_2750)" fill-opacity="0.2"/>
<path d="M96.0868 289.553C99.6775 289.553 102.55 286.434 102.55 282.659C102.55 278.829 99.6262 275.765 96.0868 275.765C92.4961 275.765 89.6235 278.883 89.6235 282.659C89.6235 286.434 92.5474 289.553 96.0868 289.553Z" fill="#1C85E8"/>
<path d="M244.741 120.647C248.555 120.647 251.635 117.374 251.635 113.322C251.635 109.27 248.555 105.997 244.741 105.997C240.928 105.997 237.847 109.27 237.847 113.322C237.847 117.374 240.928 120.647 244.741 120.647Z" fill="#E94D52"/>
<path d="M211.132 242.156C213.993 242.156 216.303 239.653 216.303 236.554C216.303 233.456 213.993 230.953 211.132 230.953C208.272 230.953 205.962 233.456 205.962 236.554C205.962 239.653 208.272 242.156 211.132 242.156Z" fill="#FC4C4F"/>
<g filter="url(#filter1_bi_55_2750)">
<path d="M250.183 235L55.4172 234.948C50.3148 234.948 47 230.521 47 224.216L47 104.775C47.4842 98.8228 50.4361 94.6797 57.0559 94H251.475C256.578 94 260.339 98.8228 259.892 104.732L260 224.109C260 230.414 255.091 235.051 250.183 235Z" fill="#6D99FC" fill-opacity="0.7"/>
</g>
<path d="M64 221.152L64 165.999" stroke="white" stroke-width="3.44706" stroke-miterlimit="10" stroke-linecap="round"/>
<path d="M248.153 218.341L193 218.341" stroke="white" stroke-width="3.44706" stroke-miterlimit="10" stroke-linecap="round"/>
<path d="M74.3408 221.152L74.3408 197.023" stroke="#FC4C4F" stroke-width="3.44706" stroke-miterlimit="10" stroke-linecap="round"/>
<path d="M248.153 208L224.023 208" stroke="#AE67FF" stroke-width="3.44706" stroke-miterlimit="10" stroke-linecap="round"/>
<g filter="url(#filter2_bi_55_2750)">
<path d="M83.8237 128.12C101.079 111.486 102.823 85.1134 87.7317 69.205C72.5806 53.2966 42.4589 52.5708 25.1434 69.205C7.88805 85.8392 10.0525 113.543 25.1434 129.451C40.2945 145.359 66.5683 144.755 83.8237 128.12Z" fill="white" fill-opacity="0.1"/>
</g>
<path d="M59 100L86.0373 125C86.0373 125 92.2173 118.313 94 113.494L59 100Z" fill="#FF3135"/>
<g filter="url(#filter3_bi_55_2750)">
<path d="M57.4257 50L53.0167 96.0876C52.9488 96.9072 53.0845 97.7898 53.4915 98.5464C53.8985 99.303 54.5768 99.9335 55.323 100.312L97.243 122C97.3108 121.937 122.205 57.4396 57.4257 50Z" fill="white" fill-opacity="0.2"/>
</g>
<circle cx="200.171" cy="111.171" r="3.44706" fill="#73FFF2"/>
<g filter="url(#filter4_bi_55_2750)">
<circle cx="200.171" cy="111.171" r="5.17059" fill="white" fill-opacity="0.2"/>
<circle cx="200.171" cy="111.171" r="5.17059" fill="url(#paint2_linear_55_2750)" fill-opacity="0.2"/>
</g>
<circle cx="221.715" cy="111.171" r="3.44706" fill="#73FFF2"/>
<g filter="url(#filter5_bi_55_2750)">
<circle cx="221.715" cy="111.171" r="5.17059" fill="white" fill-opacity="0.2"/>
<circle cx="221.715" cy="111.171" r="5.17059" fill="url(#paint3_linear_55_2750)" fill-opacity="0.2"/>
</g>
<circle cx="244.121" cy="111.171" r="3.44706" fill="#73FFF2"/>
<g filter="url(#filter6_bi_55_2750)">
<circle cx="244.121" cy="111.171" r="5.17059" fill="white" fill-opacity="0.2"/>
<circle cx="244.121" cy="111.171" r="5.17059" fill="url(#paint4_linear_55_2750)" fill-opacity="0.2"/>
</g>
<line opacity="0.4" x1="86" y1="135.896" x2="249" y2="135.896" stroke="white" stroke-width="1.20074" stroke-dasharray="4.8 7.2"/>
<line opacity="0.4" x1="86" y1="149.753" x2="249" y2="149.753" stroke="white" stroke-width="1.20074" stroke-dasharray="4.8 7.2"/>
<line opacity="0.4" x1="86" y1="163.611" x2="249" y2="163.611" stroke="white" stroke-width="1.20074" stroke-dasharray="4.8 7.2"/>
<line opacity="0.4" x1="86" y1="177.468" x2="249" y2="177.468" stroke="white" stroke-width="1.20074" stroke-dasharray="4.8 7.2"/>
<line opacity="0.4" x1="86" y1="191.325" x2="249" y2="191.325" stroke="white" stroke-width="1.20074" stroke-dasharray="4.8 7.2"/>
<path d="M249 171.73C244.944 169.59 240.991 167.596 236.819 167.596C233.563 167.596 230.441 168.81 227.3 170.031C224.952 170.944 222.592 171.861 220.159 172.278C214.876 173.253 209.188 171.303 203.905 168.572C198.216 165.841 192.528 162.134 187.245 156.673C185.983 155.46 184.74 154.161 183.508 152.874C179.191 148.362 175.011 143.993 170.585 143.993C167.385 143.993 164.036 146.642 160.627 149.338C158.41 151.092 156.168 152.865 153.925 153.942C150.641 155.64 147.2 155.603 143.796 155.567C141.726 155.545 139.67 155.523 137.672 155.892C132.421 156.613 127.516 159.826 122.319 163.231C121.885 163.515 121.45 163.8 121.012 164.085C115.73 167.596 110.041 171.303 104.352 173.253C99.0697 175.009 93.381 175.009 88.0986 170.327C87.3915 169.77 86.6906 169.14 86 168.455" stroke="#42E8E0" stroke-width="3" stroke-linecap="round"/>
<path d="M249 171.062C248.645 171.014 248.292 170.957 247.94 170.89C244.729 170.32 241.616 169.069 238.517 167.823C234.373 166.156 230.253 164.499 225.958 164.499C220.2 164.499 214.758 167.477 209.146 170.546C207.443 171.478 205.724 172.419 203.977 173.287C197.007 177.015 189.501 179.678 182.531 177.015C175.681 174.828 169.278 168.427 162.506 161.658C161.858 161.009 161.206 160.357 160.55 159.706C159.991 159.151 159.436 158.596 158.883 158.044C152.004 151.174 145.516 144.694 138.568 143.462C135.356 142.848 132.03 143.592 128.695 144.338C124.794 145.21 120.88 146.085 117.123 144.793C113.247 143.418 109.371 140.126 105.57 136.897C102.008 133.872 98.5121 130.903 95.1412 129.615C92.0274 128.62 89.0058 128.909 86 129.93" stroke="#FC4C4F" stroke-width="3" stroke-linecap="round"/>
<path d="M86 157.89L90.5282 162.79C91.09 163.372 91.7114 164.03 92.3864 164.745C97.1528 169.79 104.59 177.663 112.523 181.776C120.932 186.675 129.989 186.675 138.398 184.838C147.455 182.797 156.511 178.918 164.921 175.243C165.618 174.944 166.311 174.646 167.001 174.349C175.276 170.785 183.084 167.422 191.443 166.669C194.624 166.283 197.897 166.305 201.193 166.328C206.611 166.366 212.09 166.404 217.319 164.627C220.889 163.501 224.458 161.644 227.988 159.809C233.414 156.988 238.747 154.215 243.842 154.215C245.582 154.215 247.298 154.494 249 154.985" stroke="white" stroke-width="3" stroke-linecap="round"/>
<g filter="url(#filter7_bi_55_2750)">
<path d="M170.601 259.812H88.4295C88.0881 259.812 87.7466 259.736 87.4432 259.622C87.1397 259.471 86.8362 259.281 86.6085 259.054C86.3809 258.789 86.2292 258.523 86.1153 258.182C86.0015 257.841 85.9636 257.5 86.0395 257.197L86.2641 203.653C86.34 202.933 86.6814 202.251 87.2126 201.796C87.7437 201.303 88.4266 201.038 89.1853 201H171.357C171.699 201 172.04 201.076 172.344 201.19C172.647 201.341 172.951 201.531 173.178 201.758C173.406 202.023 173.558 202.289 173.671 202.63C173.785 202.971 173.823 203.312 173.747 203.615L173.523 257.159C173.447 257.879 173.105 258.561 172.574 259.016C172.043 259.547 171.36 259.812 170.601 259.812Z" fill="url(#paint5_linear_55_2750)" fill-opacity="0.3"/>
</g>
<path d="M97 219H166" stroke="url(#paint6_linear_55_2750)" stroke-opacity="0.8" stroke-width="4.72325" stroke-miterlimit="10" stroke-linecap="round"/>
<g filter="url(#filter8_bi_55_2750)">
<path d="M97 219H145" stroke="white" stroke-opacity="0.15" stroke-width="8.06193" stroke-miterlimit="10" stroke-linecap="round"/>
</g>
<path d="M96 232H166" stroke="url(#paint7_linear_55_2750)" stroke-opacity="0.8" stroke-width="4.72325" stroke-miterlimit="10" stroke-linecap="round"/>
<g filter="url(#filter9_bi_55_2750)">
<path d="M96 232H125" stroke="white" stroke-opacity="0.15" stroke-width="8.06193" stroke-miterlimit="10" stroke-linecap="round"/>
</g>
<path d="M96 245L166 245" stroke="url(#paint8_linear_55_2750)" stroke-opacity="0.8" stroke-width="4.72325" stroke-miterlimit="10" stroke-linecap="round"/>
<g filter="url(#filter10_bi_55_2750)">
<path d="M96 245L111 245" stroke="white" stroke-opacity="0.15" stroke-width="8.06193" stroke-miterlimit="10" stroke-linecap="round"/>
</g>
<defs>
<filter id="filter0_bi_55_2750" x="-19" y="-15" width="339" height="339" filterUnits="userSpaceOnUse" color-interpolation-filters="sRGB">
<feFlood flood-opacity="0" result="BackgroundImageFix"/>
<feGaussianBlur in="BackgroundImageFix" stdDeviation="15"/>
<feComposite in2="SourceAlpha" operator="in" result="effect1_backgroundBlur_55_2750"/>
<feBlend mode="normal" in="SourceGraphic" in2="effect1_backgroundBlur_55_2750" result="shape"/>
<feColorMatrix in="SourceAlpha" type="matrix" values="0 0 0 0 0 0 0 0 0 0 0 0 0 0 0 0 0 0 127 0" result="hardAlpha"/>
<feOffset dy="1"/>
<feGaussianBlur stdDeviation="1"/>
<feComposite in2="hardAlpha" operator="arithmetic" k2="-1" k3="1"/>
<feColorMatrix type="matrix" values="0 0 0 0 0.9375 0 0 0 0 0.910156 0 0 0 0 0.910156 0 0 0 0.6 0"/>
<feBlend mode="normal" in2="shape" result="effect2_innerShadow_55_2750"/>
</filter>
<filter id="filter1_bi_55_2750" x="41.9121" y="88.9121" width="223.176" height="151.176" filterUnits="userSpaceOnUse" color-interpolation-filters="sRGB">
<feFlood flood-opacity="0" result="BackgroundImageFix"/>
<feGaussianBlur in="BackgroundImageFix" stdDeviation="2.54395"/>
<feComposite in2="SourceAlpha" operator="in" result="effect1_backgroundBlur_55_2750"/>
<feBlend mode="normal" in="SourceGraphic" in2="effect1_backgroundBlur_55_2750" result="shape"/>
<feColorMatrix in="SourceAlpha" type="matrix" values="0 0 0 0 0 0 0 0 0 0 0 0 0 0 0 0 0 0 127 0" result="hardAlpha"/>
<feOffset dy="1.01758"/>
<feGaussianBlur stdDeviation="1.01758"/>
<feComposite in2="hardAlpha" operator="arithmetic" k2="-1" k3="1"/>
<feColorMatrix type="matrix" values="0 0 0 0 0.9375 0 0 0 0 0.910156 0 0 0 0 0.910156 0 0 0 0.6 0"/>
<feBlend mode="normal" in2="shape" result="effect2_innerShadow_55_2750"/>
</filter>
<filter id="filter2_bi_55_2750" x="8" y="52" width="95" height="94" filterUnits="userSpaceOnUse" color-interpolation-filters="sRGB">
<feFlood flood-opacity="0" result="BackgroundImageFix"/>
<feGaussianBlur in="BackgroundImageFix" stdDeviation="2.5"/>
<feComposite in2="SourceAlpha" operator="in" result="effect1_backgroundBlur_55_2750"/>
<feBlend mode="normal" in="SourceGraphic" in2="effect1_backgroundBlur_55_2750" result="shape"/>
<feColorMatrix in="SourceAlpha" type="matrix" values="0 0 0 0 0 0 0 0 0 0 0 0 0 0 0 0 0 0 127 0" result="hardAlpha"/>
<feOffset dy="1"/>
<feGaussianBlur stdDeviation="1"/>
<feComposite in2="hardAlpha" operator="arithmetic" k2="-1" k3="1"/>
<feColorMatrix type="matrix" values="0 0 0 0 0.9375 0 0 0 0 0.910156 0 0 0 0 0.910156 0 0 0 0.6 0"/>
<feBlend mode="normal" in2="shape" result="effect2_innerShadow_55_2750"/>
</filter>
<filter id="filter3_bi_55_2750" x="47.9121" y="44.9121" width="59.1758" height="82.1758" filterUnits="userSpaceOnUse" color-interpolation-filters="sRGB">
<feFlood flood-opacity="0" result="BackgroundImageFix"/>
<feGaussianBlur in="BackgroundImageFix" stdDeviation="2.54395"/>
<feComposite in2="SourceAlpha" operator="in" result="effect1_backgroundBlur_55_2750"/>
<feBlend mode="normal" in="SourceGraphic" in2="effect1_backgroundBlur_55_2750" result="shape"/>
<feColorMatrix in="SourceAlpha" type="matrix" values="0 0 0 0 0 0 0 0 0 0 0 0 0 0 0 0 0 0 127 0" result="hardAlpha"/>
<feOffset dy="1.01758"/>
<feGaussianBlur stdDeviation="1.01758"/>
<feComposite in2="hardAlpha" operator="arithmetic" k2="-1" k3="1"/>
<feColorMatrix type="matrix" values="0 0 0 0 0.9375 0 0 0 0 0.910156 0 0 0 0 0.910156 0 0 0 0.6 0"/>
<feBlend mode="normal" in2="shape" result="effect2_innerShadow_55_2750"/>
</filter>
<filter id="filter4_bi_55_2750" x="193.276" y="104.276" width="13.7884" height="13.7881" filterUnits="userSpaceOnUse" color-interpolation-filters="sRGB">
<feFlood flood-opacity="0" result="BackgroundImageFix"/>
<feGaussianBlur in="BackgroundImageFix" stdDeviation="0.861765"/>
<feComposite in2="SourceAlpha" operator="in" result="effect1_backgroundBlur_55_2750"/>
<feBlend mode="normal" in="SourceGraphic" in2="effect1_backgroundBlur_55_2750" result="shape"/>
<feColorMatrix in="SourceAlpha" type="matrix" values="0 0 0 0 0 0 0 0 0 0 0 0 0 0 0 0 0 0 127 0" result="hardAlpha"/>
<feOffset dy="0.861765"/>
<feGaussianBlur stdDeviation="0.861765"/>
<feComposite in2="hardAlpha" operator="arithmetic" k2="-1" k3="1"/>
<feColorMatrix type="matrix" values="0 0 0 0 0.9375 0 0 0 0 0.910156 0 0 0 0 0.910156 0 0 0 0.6 0"/>
<feBlend mode="normal" in2="shape" result="effect2_innerShadow_55_2750"/>
</filter>
<filter id="filter5_bi_55_2750" x="214.82" y="104.276" width="13.7884" height="13.7881" filterUnits="userSpaceOnUse" color-interpolation-filters="sRGB">
<feFlood flood-opacity="0" result="BackgroundImageFix"/>
<feGaussianBlur in="BackgroundImageFix" stdDeviation="0.861765"/>
<feComposite in2="SourceAlpha" operator="in" result="effect1_backgroundBlur_55_2750"/>
<feBlend mode="normal" in="SourceGraphic" in2="effect1_backgroundBlur_55_2750" result="shape"/>
<feColorMatrix in="SourceAlpha" type="matrix" values="0 0 0 0 0 0 0 0 0 0 0 0 0 0 0 0 0 0 127 0" result="hardAlpha"/>
<feOffset dy="0.861765"/>
<feGaussianBlur stdDeviation="0.861765"/>
<feComposite in2="hardAlpha" operator="arithmetic" k2="-1" k3="1"/>
<feColorMatrix type="matrix" values="0 0 0 0 0.9375 0 0 0 0 0.910156 0 0 0 0 0.910156 0 0 0 0.6 0"/>
<feBlend mode="normal" in2="shape" result="effect2_innerShadow_55_2750"/>
</filter>
<filter id="filter6_bi_55_2750" x="237.227" y="104.276" width="13.7884" height="13.7881" filterUnits="userSpaceOnUse" color-interpolation-filters="sRGB">
<feFlood flood-opacity="0" result="BackgroundImageFix"/>
<feGaussianBlur in="BackgroundImageFix" stdDeviation="0.861765"/>
<feComposite in2="SourceAlpha" operator="in" result="effect1_backgroundBlur_55_2750"/>
<feBlend mode="normal" in="SourceGraphic" in2="effect1_backgroundBlur_55_2750" result="shape"/>
<feColorMatrix in="SourceAlpha" type="matrix" values="0 0 0 0 0 0 0 0 0 0 0 0 0 0 0 0 0 0 127 0" result="hardAlpha"/>
<feOffset dy="0.861765"/>
<feGaussianBlur stdDeviation="0.861765"/>
<feComposite in2="hardAlpha" operator="arithmetic" k2="-1" k3="1"/>
<feColorMatrix type="matrix" values="0 0 0 0 0.9375 0 0 0 0 0.910156 0 0 0 0 0.910156 0 0 0 0.6 0"/>
<feBlend mode="normal" in2="shape" result="effect2_innerShadow_55_2750"/>
</filter>
<filter id="filter7_bi_55_2750" x="76" y="191" width="107.787" height="78.8118" filterUnits="userSpaceOnUse" color-interpolation-filters="sRGB">
<feFlood flood-opacity="0" result="BackgroundImageFix"/>
<feGaussianBlur in="BackgroundImageFix" stdDeviation="5"/>
<feComposite in2="SourceAlpha" operator="in" result="effect1_backgroundBlur_55_2750"/>
<feBlend mode="normal" in="SourceGraphic" in2="effect1_backgroundBlur_55_2750" result="shape"/>
<feColorMatrix in="SourceAlpha" type="matrix" values="0 0 0 0 0 0 0 0 0 0 0 0 0 0 0 0 0 0 127 0" result="hardAlpha"/>
<feOffset dy="1.18081"/>
<feGaussianBlur stdDeviation="1.18081"/>
<feComposite in2="hardAlpha" operator="arithmetic" k2="-1" k3="1"/>
<feColorMatrix type="matrix" values="0 0 0 0 0.9375 0 0 0 0 0.910156 0 0 0 0 0.910156 0 0 0 0.6 0"/>
<feBlend mode="normal" in2="shape" result="effect2_innerShadow_55_2750"/>
</filter>
<filter id="filter8_bi_55_2750" x="89.9692" y="211.969" width="62.0615" height="14.062" filterUnits="userSpaceOnUse" color-interpolation-filters="sRGB">
<feFlood flood-opacity="0" result="BackgroundImageFix"/>
<feGaussianBlur in="BackgroundImageFix" stdDeviation="1.5"/>
<feComposite in2="SourceAlpha" operator="in" result="effect1_backgroundBlur_55_2750"/>
<feBlend mode="normal" in="SourceGraphic" in2="effect1_backgroundBlur_55_2750" result="shape"/>
<feColorMatrix in="SourceAlpha" type="matrix" values="0 0 0 0 0 0 0 0 0 0 0 0 0 0 0 0 0 0 127 0" result="hardAlpha"/>
<feOffset/>
<feGaussianBlur stdDeviation="1.18081"/>
<feComposite in2="hardAlpha" operator="arithmetic" k2="-1" k3="1"/>
<feColorMatrix type="matrix" values="0 0 0 0 0.9375 0 0 0 0 0.910156 0 0 0 0 0.910156 0 0 0 0.6 0"/>
<feBlend mode="normal" in2="shape" result="effect2_innerShadow_55_2750"/>
</filter>
<filter id="filter9_bi_55_2750" x="88.9692" y="224.969" width="43.0615" height="14.062" filterUnits="userSpaceOnUse" color-interpolation-filters="sRGB">
<feFlood flood-opacity="0" result="BackgroundImageFix"/>
<feGaussianBlur in="BackgroundImageFix" stdDeviation="1.5"/>
<feComposite in2="SourceAlpha" operator="in" result="effect1_backgroundBlur_55_2750"/>
<feBlend mode="normal" in="SourceGraphic" in2="effect1_backgroundBlur_55_2750" result="shape"/>
<feColorMatrix in="SourceAlpha" type="matrix" values="0 0 0 0 0 0 0 0 0 0 0 0 0 0 0 0 0 0 127 0" result="hardAlpha"/>
<feOffset/>
<feGaussianBlur stdDeviation="1.18081"/>
<feComposite in2="hardAlpha" operator="arithmetic" k2="-1" k3="1"/>
<feColorMatrix type="matrix" values="0 0 0 0 0.9375 0 0 0 0 0.910156 0 0 0 0 0.910156 0 0 0 0.6 0"/>
<feBlend mode="normal" in2="shape" result="effect2_innerShadow_55_2750"/>
</filter>
<filter id="filter10_bi_55_2750" x="88.9692" y="237.969" width="29.0615" height="14.062" filterUnits="userSpaceOnUse" color-interpolation-filters="sRGB">
<feFlood flood-opacity="0" result="BackgroundImageFix"/>
<feGaussianBlur in="BackgroundImageFix" stdDeviation="1.5"/>
<feComposite in2="SourceAlpha" operator="in" result="effect1_backgroundBlur_55_2750"/>
<feBlend mode="normal" in="SourceGraphic" in2="effect1_backgroundBlur_55_2750" result="shape"/>
<feColorMatrix in="SourceAlpha" type="matrix" values="0 0 0 0 0 0 0 0 0 0 0 0 0 0 0 0 0 0 127 0" result="hardAlpha"/>
<feOffset/>
<feGaussianBlur stdDeviation="1.18081"/>
<feComposite in2="hardAlpha" operator="arithmetic" k2="-1" k3="1"/>
<feColorMatrix type="matrix" values="0 0 0 0 0.9375 0 0 0 0 0.910156 0 0 0 0 0.910156 0 0 0 0.6 0"/>
<feBlend mode="normal" in2="shape" result="effect2_innerShadow_55_2750"/>
</filter>
<linearGradient id="paint0_linear_55_2750" x1="225.851" y1="261.609" x2="244.461" y2="7.65691" gradientUnits="userSpaceOnUse">
<stop offset="0.125" stop-color="#7311C6"/>
<stop offset="0.802083" stop-color="#8469D1"/>
</linearGradient>
<linearGradient id="paint1_linear_55_2750" x1="112.714" y1="29.8571" x2="93.6218" y2="15.5692" gradientUnits="userSpaceOnUse">
<stop stop-color="#82E8FF"/>
<stop offset="1" stop-color="#379FFF"/>
</linearGradient>
<linearGradient id="paint2_linear_55_2750" x1="208.296" y1="117.08" x2="192.256" y2="106" gradientUnits="userSpaceOnUse">
<stop stop-color="#82E8FF"/>
<stop offset="1" stop-color="#379FFF"/>
</linearGradient>
<linearGradient id="paint3_linear_55_2750" x1="229.84" y1="117.08" x2="213.8" y2="106" gradientUnits="userSpaceOnUse">
<stop stop-color="#82E8FF"/>
<stop offset="1" stop-color="#379FFF"/>
</linearGradient>
<linearGradient id="paint4_linear_55_2750" x1="252.246" y1="117.08" x2="236.207" y2="106" gradientUnits="userSpaceOnUse">
<stop stop-color="#82E8FF"/>
<stop offset="1" stop-color="#379FFF"/>
</linearGradient>
<linearGradient id="paint5_linear_55_2750" x1="75.6559" y1="260.703" x2="180.656" y2="259.703" gradientUnits="userSpaceOnUse">
<stop stop-color="#1C85E8"/>
<stop offset="1" stop-color="white" stop-opacity="0"/>
</linearGradient>
<linearGradient id="paint6_linear_55_2750" x1="148.596" y1="220.244" x2="148.598" y2="218.817" gradientUnits="userSpaceOnUse">
<stop stop-color="#612CF7"/>
<stop offset="1" stop-color="#05C0CC"/>
</linearGradient>
<linearGradient id="paint7_linear_55_2750" x1="148.344" y1="233.244" x2="148.346" y2="231.817" gradientUnits="userSpaceOnUse">
<stop stop-color="#612CF7"/>
<stop offset="1" stop-color="#05C0CC"/>
</linearGradient>
<linearGradient id="paint8_linear_55_2750" x1="148.344" y1="246.244" x2="148.346" y2="244.817" gradientUnits="userSpaceOnUse">
<stop stop-color="#612CF7"/>
<stop offset="1" stop-color="#05C0CC"/>
</linearGradient>
</defs>
</svg>
