<svg width="299" height="294" viewBox="0 0 299 294" fill="none" xmlns="http://www.w3.org/2000/svg">
<path d="M181.5 218C231.222 218 271 177.512 271 128.5C271 78.778 230.512 39 181.5 39C131.778 39 92 79.4883 92 128.5C92 177.512 132.488 218 181.5 218Z" fill="url(#paint0_linear_55_2576)" fill-opacity="0.8"/>
<g filter="url(#filter0_bi_55_2576)">
<path d="M150.526 294C227.589 294 290 231.536 290 154.526C290 77.4634 227.537 15 150.526 15C73.4635 15 11 77.4634 11 154.526C11.0521 231.536 73.5156 294 150.526 294Z" fill="#D1E8F7" fill-opacity="0.04"/>
</g>
<path d="M150.52 255.815C206.591 255.815 252.002 210.408 252.002 154.426C252.002 98.4068 206.553 53 150.52 53C94.4487 53 49 98.4068 49 154.426C49.0379 210.408 94.4867 255.815 150.52 255.815Z" stroke="#D1E8F7" stroke-opacity="0.5" stroke-miterlimit="10"/>
<path d="M34.0395 77.5589C36.6727 77.5589 38.7792 75.4147 38.7792 72.8192C38.7792 70.186 36.6351 68.0795 34.0395 68.0795C31.4063 68.0795 29.2998 70.2236 29.2998 72.8192C29.2998 75.4147 31.444 77.5589 34.0395 77.5589Z" fill="#6526AC"/>
<path d="M267.325 234.788C271.395 234.788 274.65 231.669 274.65 227.894C274.65 224.064 271.336 221 267.325 221C263.256 221 260.001 224.119 260.001 227.894C259.943 231.669 263.256 234.788 267.325 234.788Z" fill="url(#paint1_linear_55_2576)"/>
<path d="M96.0868 289.553C99.6775 289.553 102.55 286.434 102.55 282.659C102.55 278.829 99.6262 275.765 96.0868 275.765C92.4961 275.765 89.6235 278.883 89.6235 282.659C89.6235 286.434 92.5474 289.553 96.0868 289.553Z" fill="#1C85E8"/>
<path d="M244.741 120.647C248.555 120.647 251.635 117.374 251.635 113.322C251.635 109.27 248.555 105.997 244.741 105.997C240.928 105.997 237.847 109.27 237.847 113.322C237.847 117.374 240.928 120.647 244.741 120.647Z" fill="#E94D52"/>
<path d="M211.132 242.156C213.993 242.156 216.303 239.653 216.303 236.554C216.303 233.456 213.993 230.953 211.132 230.953C208.272 230.953 205.962 233.456 205.962 236.554C205.962 239.653 208.272 242.156 211.132 242.156Z" fill="url(#paint2_linear_55_2576)" fill-opacity="0.8"/>
<path d="M145.583 224.536H113.718V260H145.583V224.536Z" fill="#5980EF"/>
<path d="M145.583 224.536V251.06C142.527 252.188 139.226 252.809 135.778 252.809C126.856 252.809 118.898 248.674 113.718 242.219V224.536H145.583Z" fill="#3A61E0"/>
<path d="M145.583 260H113.718C113.735 259.935 116.039 250.374 124.667 252.809C133.327 255.261 126.464 256.241 145.583 260Z" fill="#113251"/>
<path d="M211.393 171.034L201.245 201.242L234.857 212.537L245.006 182.329L211.393 171.034Z" fill="#5980EF"/>
<path d="M201.239 201.232L226.388 209.681C228.43 207.148 230.064 204.206 231.159 200.938C234.003 192.472 232.614 183.614 228.153 176.652L211.387 171.014L201.239 201.232Z" fill="#3A61E0"/>
<path d="M234.852 212.508L245 182.307C244.934 182.307 235.13 181.441 234.705 190.397C234.264 199.385 237.385 193.207 234.852 212.508Z" fill="#113251"/>
<path d="M197.693 123.424C184.114 116.266 167.904 112.818 150.893 114.403C142.445 115.188 134.438 117.149 127.036 120.107L123.947 113.7C148.802 102.326 177.431 106.689 197.693 123.424Z" fill="#6D99FC"/>
<path d="M114.519 126.35C101.806 134.129 91.7724 145.095 85.7427 157.809C89.9586 143.411 98.7499 130.354 111.479 121.006C111.725 120.826 111.986 120.63 112.247 120.45C111.986 120.63 111.741 120.826 111.479 121.006L114.519 126.35Z" fill="#6D99FC"/>
<path d="M187.709 238.395C182.692 241.239 177.48 243.412 172.169 244.932C171.303 245.177 170.421 245.406 169.554 245.618C165.322 246.648 161.057 247.269 156.776 247.498C147.625 247.972 138.491 246.648 129.912 243.657C114.47 238.281 100.825 227.494 92.0992 212.149C82.311 194.956 80.5953 175.394 85.7263 157.793C85.7263 157.777 85.7426 157.76 85.7426 157.76C91.7724 145.062 101.789 134.113 114.502 126.333L111.496 121.006V120.989C111.741 120.81 112.002 120.614 112.264 120.434C112.525 120.254 112.787 120.074 113.032 119.878L116.529 125.14L121.496 132.625L121.594 132.756L130.68 127.592L127.052 120.091L127.036 120.074C134.438 117.133 142.445 115.155 150.893 114.371C167.888 112.785 184.049 116.234 197.628 123.359C197.661 123.375 197.677 123.392 197.71 123.408C200.537 125.745 203.2 128.327 205.684 131.138C208.772 134.668 211.567 138.558 213.985 142.791C233.104 176.44 221.355 219.241 187.709 238.395Z" fill="#3A61E0"/>
<path d="M121.48 132.642L118.931 134.096L114.519 126.35L111.479 121.022C111.725 120.842 111.986 120.646 112.248 120.466C112.509 120.287 112.77 120.107 113.032 119.927L116.512 125.173L121.48 132.642Z" fill="#3A61E0"/>
<path d="M187.709 238.395C182.693 241.238 177.48 243.412 172.169 244.932C171.303 245.177 170.421 245.406 169.555 245.618C165.323 246.648 161.058 247.269 156.776 247.498C147.626 247.972 138.491 246.648 129.912 243.657C136.906 236.466 169.146 241.843 167.136 224.536C164.685 203.454 198.674 202.147 196.223 160.473C195.275 144.31 199.704 135.665 205.652 131.138C208.74 134.668 211.534 138.558 213.953 142.79C233.104 176.44 221.355 219.241 187.709 238.395Z" fill="#113251"/>
<path d="M108.408 227.805C108.904 227.805 109.306 227.402 109.306 226.906C109.306 226.41 108.904 226.007 108.408 226.007C107.911 226.007 107.509 226.41 107.509 226.906C107.509 227.402 107.911 227.805 108.408 227.805Z" fill="#5980EF"/>
<path d="M116.087 233.688C118.028 233.688 119.601 232.371 119.601 230.747C119.601 229.122 118.028 227.805 116.087 227.805C114.147 227.805 112.574 229.122 112.574 230.747C112.574 232.371 114.147 233.688 116.087 233.688Z" fill="#5980EF"/>
<path d="M90.8412 157.352V198.454C90.8412 198.454 63.0782 222.396 40.8547 163.758C40.8547 163.742 40.8384 163.725 40.8384 163.725C40.8547 163.725 40.8547 163.709 40.8711 163.709C70.9218 141.091 90.8412 157.352 90.8412 157.352Z" fill="#6D99FC"/>
<path d="M90.841 160.62V198.454C90.841 198.454 63.078 222.396 40.8545 163.758C40.8708 163.758 40.8872 163.742 40.8872 163.742C71.134 146.01 90.841 160.62 90.841 160.62Z" fill="#3A61E0"/>
<path d="M90.8412 191.769V198.453C90.8412 198.453 63.0782 222.395 40.8547 163.758C40.8547 163.742 40.8384 163.725 40.8384 163.725C40.8547 163.725 40.8547 163.709 40.8711 163.709C40.8711 163.725 40.8874 163.742 40.8874 163.758C48.2898 177.094 62.016 192.456 85.7755 191.704C87.622 191.639 89.3215 191.655 90.8412 191.769Z" fill="#113251"/>
<path d="M47.2114 167.991C47.2114 167.991 57.0159 186.295 77.6053 186.948C51.2966 177.796 47.2114 167.991 47.2114 167.991Z" fill="#5980EF"/>
<path d="M64.7775 169.216C64.6631 169.216 64.5487 169.2 64.4343 169.135C64.1402 169.004 63.9604 168.726 63.9604 168.399C63.9604 168.203 63.9768 163.921 70.8399 158.316C57.8 157.041 51.0839 162.042 51.0186 162.091C50.6591 162.369 50.1525 162.304 49.8747 161.944C49.5969 161.584 49.6623 161.078 50.0218 160.8C50.3322 160.555 57.9634 154.819 73.0296 156.943C73.3564 156.992 73.6342 157.237 73.7159 157.548C73.7976 157.875 73.6832 158.202 73.4054 158.414C68.9934 161.666 67.0815 164.461 66.2482 166.275C69.598 163.905 76.4448 159.852 81.4941 162.205C81.9026 162.402 82.0824 162.876 81.8863 163.284C81.6902 163.693 81.2163 163.872 80.8078 163.676C74.9905 160.963 65.4148 168.955 65.3167 169.037C65.1533 169.151 64.9736 169.216 64.7775 169.216Z" fill="#5980EF"/>
<path d="M204.41 202.637C204.214 202.637 204.001 202.555 203.854 202.408C203.544 202.114 203.511 201.657 203.772 201.313C211.158 191.59 213.985 181.277 215.048 174.332C216.257 166.471 215.554 160.898 215.309 160.212C215.097 159.836 215.211 159.378 215.57 159.133C215.946 158.888 216.453 158.986 216.698 159.362C217.237 160.163 217.891 166.16 216.731 174.136C215.865 180.068 213.789 188.337 208.838 196.705C218.626 187.193 220.636 180.754 221.045 178.221C221.077 177.992 221.192 177.306 221.911 177.306C222.221 177.306 222.499 177.486 222.646 177.764C222.858 178.189 223.577 181.735 223.675 185.87C223.757 189.71 223.332 195.021 220.783 198.551C220.522 198.911 220.015 198.993 219.639 198.731C219.28 198.47 219.198 197.963 219.46 197.587C222.499 193.404 222.27 186.098 221.764 181.8C220.064 186.278 215.75 193.273 204.965 202.441C204.786 202.572 204.606 202.637 204.41 202.637Z" fill="#3A61E0"/>
<path d="M198.037 139.898L193.886 136.874L167.201 117.443L164.489 115.482C164.489 115.482 162.953 89.6931 199.115 78.8416L199.18 78.9396C199.246 79.0377 199.311 79.1521 199.377 79.2501C233.758 131.71 198.037 139.898 198.037 139.898Z" fill="#5980EF"/>
<path d="M198.036 139.898L193.886 136.874L167.201 117.443C167.757 112.164 171.679 91.9647 199.196 78.9232C199.262 79.0213 199.327 79.1357 199.393 79.2337C233.757 131.71 198.036 139.898 198.036 139.898Z" fill="#3A61E0"/>
<path d="M198.036 139.898L193.886 136.874C208.674 108.193 200.095 97.0472 199.393 79.25C233.757 131.71 198.036 139.898 198.036 139.898Z" fill="#113251"/>
<path d="M206.599 127.51C207.367 128.54 208.021 129.651 208.544 130.811C214.1 124.585 215.292 113.243 206.975 96.41C206.338 95.1189 211.632 110.399 206.599 127.51Z" fill="#6D99FC"/>
<path d="M111.663 139.282C114.64 137.009 116.033 133.829 114.774 132.179C113.514 130.529 110.08 131.033 107.103 133.306C104.126 135.578 102.733 138.758 103.993 140.408C105.252 142.059 108.686 141.554 111.663 139.282Z" fill="#6D99FC"/>
<path d="M101.659 140.241C102.557 141.009 102.345 142.709 101.201 144.049C100.057 145.389 98.4069 145.863 97.5245 145.095C96.6258 144.327 96.8382 142.627 97.982 141.287C99.1096 139.947 100.76 139.473 101.659 140.241Z" fill="#6D99FC"/>
<path d="M153.508 114.387C156.802 114.387 159.472 112.997 159.472 111.282C159.472 109.567 156.802 108.177 153.508 108.177C150.214 108.177 147.543 109.567 147.543 111.282C147.543 112.997 150.214 114.387 153.508 114.387Z" fill="white"/>
<path d="M114.372 224.536C115.996 224.536 117.313 223.841 117.313 222.984C117.313 222.126 115.996 221.431 114.372 221.431C112.748 221.431 111.431 222.126 111.431 222.984C111.431 223.841 112.748 224.536 114.372 224.536Z" fill="#3A61E0"/>
<path d="M154.538 145.405L151.351 144.147L151.988 142.545C153.59 138.476 157.283 135.534 161.613 134.881C162.79 134.701 163.966 134.701 165.143 134.864L166.842 135.093L166.368 138.492L164.669 138.264C163.819 138.149 162.969 138.149 162.12 138.28C159.048 138.737 156.319 140.911 155.175 143.804L154.538 145.405Z" fill="#113251"/>
<path d="M101.953 167.762L99.0444 165.948L99.9432 164.493C102.264 160.784 106.414 158.545 110.793 158.692C111.97 158.724 113.147 158.937 114.274 159.313L115.908 159.852L114.83 163.104L113.196 162.565C112.379 162.303 111.529 162.14 110.679 162.124C107.574 162.026 104.502 163.676 102.852 166.307L101.953 167.762Z" fill="#113251"/>
<path d="M176.222 167.991C182.494 167.991 187.578 164.04 187.578 159.166C187.578 154.292 182.494 150.341 176.222 150.341C169.949 150.341 164.865 154.292 164.865 159.166C164.865 164.04 169.949 167.991 176.222 167.991Z" fill="#5980EF"/>
<path d="M118.076 203.653C122.511 199.217 123.313 192.828 119.867 189.381C116.421 185.935 110.032 186.737 105.597 191.173C101.162 195.608 100.36 201.998 103.806 205.444C107.252 208.891 113.641 208.089 118.076 203.653Z" fill="#5980EF"/>
<path d="M189.376 151.648C192.354 151.648 194.769 149.234 194.769 146.255C194.769 143.277 192.354 140.862 189.376 140.862C186.398 140.862 183.984 143.277 183.984 146.255C183.984 149.234 186.398 151.648 189.376 151.648Z" fill="#5980EF"/>
<path d="M93.7825 200.251C96.5261 200.251 98.7501 198.027 98.7501 195.283C98.7501 192.539 96.5261 190.315 93.7825 190.315C91.039 190.315 88.8149 192.539 88.8149 195.283C88.8149 198.027 91.039 200.251 93.7825 200.251Z" fill="#5980EF"/>
<path d="M130.664 206.641C125.827 206.641 121.154 205.922 116.856 204.435L115.385 203.928L116.382 200.987L117.853 201.493C128.196 205.023 140.893 203.928 152.675 198.454C165.748 192.358 175.764 181 179.49 168.073C179.539 167.893 179.572 167.729 179.605 167.566C179.801 166.749 179.964 166.03 180.225 165.245C180.193 164.984 180.193 164.543 180.422 164.069L181.124 162.68L183.886 164.085L183.33 165.18C183.347 165.409 183.347 165.703 183.216 166.046C182.954 166.765 182.807 167.419 182.611 168.252C182.562 168.432 182.53 168.612 182.48 168.808C182.48 168.824 182.464 168.857 182.464 168.873C178.51 182.667 167.839 194.76 153.966 201.248C146.335 204.827 138.295 206.641 130.664 206.641Z" fill="#113251"/>
<path d="M141.497 195.283C154.042 195.283 164.211 185.113 164.211 172.567C164.211 160.021 154.042 149.851 141.497 149.851C128.953 149.851 118.784 160.021 118.784 172.567C118.784 185.113 128.953 195.283 141.497 195.283Z" fill="#6D99FC"/>
<path d="M161.597 168.971C161.597 181.523 151.433 191.688 138.883 191.688C126.333 191.688 116.169 181.523 116.169 168.971C116.169 168.089 116.218 167.239 116.317 166.389C117.591 155.064 127.216 146.255 138.883 146.255C141.253 146.255 143.524 146.615 145.665 147.285C154.897 150.177 161.597 158.79 161.597 168.971Z" fill="#5980EF"/>
<path d="M145.011 166.52C147.763 166.52 149.995 163.227 149.995 159.166C149.995 155.104 147.763 151.812 145.011 151.812C142.258 151.812 140.027 155.104 140.027 159.166C140.027 163.227 142.258 166.52 145.011 166.52Z" fill="#3A61E0"/>
<path d="M130.337 173.746C132.123 171.651 131.065 167.817 127.975 165.182C124.884 162.547 120.931 162.11 119.146 164.205C117.36 166.3 118.418 170.134 121.509 172.769C124.599 175.403 128.552 175.841 130.337 173.746Z" fill="#3A61E0"/>
<path d="M145.664 147.285C144.194 150.619 140.125 154.377 132.51 156.388C124.209 158.577 119.225 162.81 116.316 166.389C117.591 155.064 127.216 146.255 138.883 146.255C141.252 146.255 143.524 146.615 145.664 147.285Z" fill="#6D99FC"/>
<path d="M96.5116 90.8862L94.6324 91.6379L92.361 92.5531L87.9654 94.3345L85.8411 95.1843L83.5697 96.0995L83.5043 96.1158C82.7853 96.41 82.0337 96.5571 81.2983 96.6061C78.406 96.7695 75.579 95.0862 74.4352 92.259L62.9966 63.7901C61.5587 60.2437 63.3071 56.158 66.8531 54.7199L75.6934 51.1572L77.9648 50.242L79.844 49.4902C83.4063 48.0521 87.4751 49.8007 88.9131 53.3471L100.368 81.816C101.806 85.3787 100.058 89.4644 96.5116 90.8862Z" fill="#D2D1DF"/>
<path d="M77.979 50.2604L75.7051 51.1758L84.0033 71.7949L86.2772 70.8795L77.979 50.2604Z" fill="#FF4F66"/>
<path d="M88.1557 75.5821L85.8818 76.4969L92.3461 92.5677L94.62 91.6528L88.1557 75.5821Z" fill="#113251"/>
<path d="M71.0559 65.0169L68.9336 65.8712L81.442 96.9514L83.5643 96.0971L71.0559 65.0169Z" fill="#BDBCD3"/>
<path d="M75.4534 63.2516L73.3311 64.106L85.8394 95.1862L87.9617 94.3318L75.4534 63.2516Z" fill="#BDBCD3"/>
<path d="M142.82 66.2671C144.212 65.1906 143.381 61.7824 140.964 58.6545C138.546 55.5267 135.457 53.8637 134.065 54.9401C132.673 56.0165 133.504 59.4248 135.921 62.5526C138.339 65.6805 141.427 67.3435 142.82 66.2671Z" fill="#6D99FC"/>
<path d="M142.07 69.2158C142.625 70.2454 142.609 71.3404 142.004 71.6672C141.416 71.9941 140.468 71.4221 139.913 70.3925C139.357 69.3629 139.373 68.268 139.978 67.9411C140.583 67.6143 141.514 68.1862 142.07 69.2158Z" fill="#6D99FC"/>
<path d="M130.125 112.397C130.06 112.446 129.994 112.495 129.929 112.544C129.864 112.593 129.798 112.642 129.733 112.674C128.344 113.557 126.824 114.08 125.207 114.145C124.455 114.162 123.72 114.096 123.001 113.933C119.765 110.239 116.481 104.748 115.86 96.822C115.124 87.4904 118.948 80.9043 122.51 76.9003C122.935 76.8186 123.36 76.7696 123.801 76.7533C125.419 76.6879 126.971 77.0965 128.426 77.8646C128.507 77.9136 128.589 77.9626 128.671 77.9953C128.753 78.0443 128.834 78.0934 128.916 78.1424C130.06 78.8451 131.122 79.7767 132.07 80.9043C132.854 81.8358 133.573 82.9144 134.21 84.0911C134.766 85.137 135.256 86.281 135.665 87.4904C135.844 88.046 136.024 88.618 136.171 89.19C136.318 89.7784 136.449 90.3667 136.563 90.9714C136.645 91.4126 136.711 91.8702 136.776 92.3278C136.809 92.5403 136.825 92.7527 136.858 92.9815C136.923 93.6189 136.972 94.2889 137.005 94.9426C137.282 102.64 134.439 109.341 130.125 112.397Z" fill="#FF9A2C"/>
<path d="M130.142 112.397C130.011 112.495 129.88 112.577 129.733 112.675C124.994 110.109 121.465 103.474 121.171 95.564C120.876 87.6541 123.9 80.7739 128.442 77.8649C129.766 78.5839 131.008 79.6135 132.086 80.9046C134.897 84.2385 136.792 89.272 137.005 94.9756C137.283 102.64 134.439 109.341 130.142 112.397Z" fill="#FFC278"/>
<path d="M130.142 112.397C127.119 111.073 128.312 103.915 129.913 97.8191C131.89 90.2361 126.04 91.5108 129.014 83.9932C129.782 82.0484 130.877 81.1496 132.086 80.9044C134.897 84.2383 136.792 89.2719 137.005 94.9754C137.283 102.64 134.439 109.341 130.142 112.397Z" fill="#FFD19F"/>
<path d="M123.017 113.917C117.102 112.593 112.363 105.092 112.02 95.8907C111.66 86.2322 116.268 78.0772 122.527 76.8842C118.948 80.9044 115.141 87.4742 115.876 96.8059C116.481 104.748 119.782 110.223 123.017 113.917Z" fill="#DD7917"/>
<path d="M122.641 73.4031C122.641 73.4031 139.096 74.8249 140.469 95.8252C141.874 77.9954 126.367 65.5423 122.641 73.4031Z" fill="#6D99FC"/>
<path d="M139.276 100.172C138.982 99.4861 138.361 110.485 132.119 114.848C138.443 113.59 140.42 102.918 139.276 100.172Z" fill="#6D99FC"/>
<path d="M124.357 95.8251C124.553 98.4726 125.207 100.891 126.138 102.803C124.521 100.728 123.36 97.4757 123.083 93.7496C122.592 87.1635 125.109 81.607 128.687 81.3455C130.828 81.1821 132.871 82.9471 134.26 85.8071C133.018 84.2055 131.514 83.2903 129.946 83.4211C126.367 83.6989 123.867 89.239 124.357 95.8251Z" fill="white"/>
<path d="M24.4976 109.484C24.4976 109.484 49.499 101.803 72.8663 119.126C62.0814 114.714 37.4068 106.706 19.7588 114.387C2.11072 122.068 15.0199 111.282 24.4976 109.484Z" fill="#6D99FC"/>
<path d="M47.7016 121.643C47.7016 121.643 61.3135 115.711 75.5953 123.996C69.2388 122.199 54.8099 119.257 45.3322 124.715C35.8709 130.174 42.4726 123.261 47.7016 121.643Z" fill="#6D99FC"/>
<g clip-path="url(#clip0_55_2576)">
<path d="M55.3497 72.5943L58.5082 66.504C56.8061 73.0111 55.9082 79.7157 56.0965 86.4208C55.045 82.3448 54.8394 77.6776 55.3497 72.5943ZM86.8958 104.224C89.2856 114.37 92.8695 124.187 97.4735 133.545C70.4292 134.303 56.8229 110.896 56.0965 86.4208C58.8786 97.1365 67.4524 103.888 86.8958 104.224Z" fill="url(#paint3_linear_55_2576)" stroke="white" stroke-width="0.646324" stroke-miterlimit="10" stroke-linecap="round" stroke-linejoin="round"/>
<path d="M43.36 73.379C39.7863 58.2368 40.1745 46.9087 44.0812 35.2311C44.6523 38.1237 45.5054 40.8191 46.5104 43.4927C50.7907 53.8364 57.3929 63.0635 64.6449 71.4144C61.9402 76.3435 53.161 95.1406 65.3967 117.648C65.5708 117.78 50.4169 101.954 43.36 73.379Z" fill="url(#paint4_linear_55_2576)" stroke="white" stroke-width="0.646324" stroke-miterlimit="10" stroke-linecap="round" stroke-linejoin="round"/>
<path d="M45.2427 79.9969C46.0185 67.0474 52.3757 73.4917 54.8059 102.262M61.2144 112.3C53.9339 90.8024 59.0961 77.0656 59.0961 77.0656C59.0961 77.0656 56.088 72.3316 56.9441 66.4158C49.7559 57.4295 47.155 50.1321 47.155 50.1321C47.155 50.1321 46.7304 54.7334 40.9907 52.584L61.2144 112.3Z" stroke="white" stroke-width="0.646324" stroke-miterlimit="10" stroke-linecap="round" stroke-linejoin="round"/>
<path d="M63.0827 112.345C75.0246 129.571 87.3428 129.992 87.3428 129.992C87.6815 125.873 91.5063 126.575 91.5063 126.575C91.5063 126.575 87.6625 117.108 85.8902 111.257C79.1573 111.912 81.4919 106.566 81.4919 106.566C81.4919 106.566 65.8954 107.087 59.357 97.2244" stroke="white" stroke-width="0.646324" stroke-miterlimit="10" stroke-linecap="round" stroke-linejoin="round"/>
<path d="M59.9743 101.519C65.2012 107.656 77.5629 118.091 71.3474 116.949C65.132 115.807 62.5138 110.548 62.5138 110.548" stroke="white" stroke-width="0.646324" stroke-miterlimit="10" stroke-linecap="round" stroke-linejoin="round"/>
</g>
<g clip-path="url(#clip1_55_2576)">
<path d="M117.178 83.073C117.321 83.7768 117.576 84.4077 117.904 85.1502C112.368 91.0161 101.114 89.6198 105.166 104.04C104.873 103.594 105.459 104.487 105.166 104.04C92.5328 79.4474 99.9407 69.1613 99.9407 69.1613L116.255 38.5084C116.255 38.5084 108.835 57.2618 117.178 83.073Z" fill="url(#paint5_linear_55_2576)" stroke="white" stroke-width="0.646324" stroke-miterlimit="10" stroke-linecap="round" stroke-linejoin="round"/>
<path d="M137.818 51.4979C118.201 65.9623 106.271 79.0545 105.055 104.113C88.1002 73.417 101.863 43.4804 125.891 19.738C126.123 30.759 130.229 42.111 137.818 51.4979Z" fill="url(#paint6_linear_55_2576)" stroke="white" stroke-width="0.646324" stroke-miterlimit="10" stroke-linecap="round" stroke-linejoin="round"/>
<path d="M101.013 94.3148C101.694 91.4738 104.492 92.8304 104.492 92.8304C104.492 92.8304 112.285 67.1288 126.305 56.496C126.305 56.496 124.977 49.8653 131.708 48.0036C123.566 38.5008 123.329 28.4411 123.329 28.4411C119.841 31.3676 116.042 30.6675 116.042 30.6675" stroke="white" stroke-width="0.646324" stroke-miterlimit="10" stroke-linecap="round" stroke-linejoin="round"/>
<path d="M104.962 56.1402C101.16 61.6409 100.138 67.5315 102.678 69.2971C105.219 71.0628 110.362 68.0349 114.164 62.5342C117.966 57.0334 118.989 51.1429 116.448 49.3772C113.907 47.6116 108.765 50.6395 104.962 56.1402Z" stroke="white" stroke-width="0.646324" stroke-miterlimit="10" stroke-linecap="round" stroke-linejoin="round"/>
</g>
<defs>
<filter id="filter0_bi_55_2576" x="-19" y="-15" width="339" height="339" filterUnits="userSpaceOnUse" color-interpolation-filters="sRGB">
<feFlood flood-opacity="0" result="BackgroundImageFix"/>
<feGaussianBlur in="BackgroundImageFix" stdDeviation="15"/>
<feComposite in2="SourceAlpha" operator="in" result="effect1_backgroundBlur_55_2576"/>
<feBlend mode="normal" in="SourceGraphic" in2="effect1_backgroundBlur_55_2576" result="shape"/>
<feColorMatrix in="SourceAlpha" type="matrix" values="0 0 0 0 0 0 0 0 0 0 0 0 0 0 0 0 0 0 127 0" result="hardAlpha"/>
<feOffset dy="1"/>
<feGaussianBlur stdDeviation="1"/>
<feComposite in2="hardAlpha" operator="arithmetic" k2="-1" k3="1"/>
<feColorMatrix type="matrix" values="0 0 0 0 0.9375 0 0 0 0 0.910156 0 0 0 0 0.910156 0 0 0 0.6 0"/>
<feBlend mode="normal" in2="shape" result="effect2_innerShadow_55_2576"/>
</filter>
<linearGradient id="paint0_linear_55_2576" x1="225.851" y1="261.609" x2="244.461" y2="7.65691" gradientUnits="userSpaceOnUse">
<stop offset="0.125" stop-color="#7311C6"/>
<stop offset="0.802083" stop-color="#8469D1"/>
</linearGradient>
<linearGradient id="paint1_linear_55_2576" x1="267.047" y1="220.958" x2="270.035" y2="250.237" gradientUnits="userSpaceOnUse">
<stop stop-color="#2C90F7"/>
<stop offset="1" stop-color="#94B9FF"/>
</linearGradient>
<linearGradient id="paint2_linear_55_2576" x1="213.695" y1="244.885" x2="214.955" y2="229.006" gradientUnits="userSpaceOnUse">
<stop offset="0.125" stop-color="#7311C6"/>
<stop offset="0.802083" stop-color="#8469D1"/>
</linearGradient>
<linearGradient id="paint3_linear_55_2576" x1="98.1859" y1="79.1215" x2="49.0244" y2="84.4254" gradientUnits="userSpaceOnUse">
<stop stop-color="#2C90F7"/>
<stop offset="1" stop-color="#05C0CC"/>
</linearGradient>
<linearGradient id="paint4_linear_55_2576" x1="67.4184" y1="53.4366" x2="36.6096" y2="57.2753" gradientUnits="userSpaceOnUse">
<stop stop-color="#2C90F7"/>
<stop offset="1" stop-color="#05C0CC"/>
</linearGradient>
<linearGradient id="paint5_linear_55_2576" x1="81.4538" y1="47.0989" x2="114.859" y2="108.025" gradientUnits="userSpaceOnUse">
<stop stop-color="#2C90F7"/>
<stop offset="1" stop-color="#05C0CC"/>
</linearGradient>
<linearGradient id="paint6_linear_55_2576" x1="78.1613" y1="33.821" x2="119.428" y2="107.14" gradientUnits="userSpaceOnUse">
<stop stop-color="#2C90F7"/>
<stop offset="1" stop-color="#05C0CC"/>
</linearGradient>
<clipPath id="clip0_55_2576">
<rect width="105.997" height="46.5353" fill="white" transform="translate(52.0859 140.541) rotate(-98.1824)"/>
</clipPath>
<clipPath id="clip1_55_2576">
<rect width="64.6324" height="60.3235" fill="white" transform="translate(159.13 69.4399) rotate(146.737)"/>
</clipPath>
</defs>
</svg>
