<svg width="325" height="293" viewBox="0 0 325 293" fill="none" xmlns="http://www.w3.org/2000/svg">
<path d="M146.912 292.138C223.309 292.138 285.244 230.211 285.244 153.825C285.244 77.4384 223.309 15.5117 146.912 15.5117C70.5144 15.5117 8.61768 77.477 8.61768 153.864C8.61768 230.211 70.5144 292.138 146.912 292.138Z" stroke="#D1E8F7" stroke-width="1.13902" stroke-miterlimit="10"/>
<path d="M34.0395 77.559C36.6727 77.559 38.7792 75.4148 38.7792 72.8193C38.7792 70.1861 36.6351 68.0796 34.0395 68.0796C31.4063 68.0796 29.2998 70.2237 29.2998 72.8193C29.2998 75.4148 31.444 77.559 34.0395 77.559Z" fill="#6526AC"/>
<path d="M285.675 166.32C289.745 166.32 293 163.202 293 159.426C293 155.596 289.687 152.532 285.675 152.532C281.606 152.532 278.351 155.651 278.351 159.426C278.293 163.202 281.606 166.32 285.675 166.32Z" fill="url(#paint0_linear_55_2406)" fill-opacity="0.8"/>
<path d="M96.0868 289.553C99.6775 289.553 102.55 286.434 102.55 282.659C102.55 278.829 99.6262 275.765 96.0868 275.765C92.4961 275.765 89.6235 278.883 89.6235 282.659C89.6235 286.434 92.5474 289.553 96.0868 289.553Z" fill="#1C85E8"/>
<path d="M150.397 257.668C207.286 257.668 253.359 211.556 253.359 154.706C253.359 97.8175 207.247 51.7061 150.397 51.7061C93.5084 51.7061 47.397 97.8175 47.397 154.706C47.4355 211.556 93.5469 257.668 150.397 257.668Z" stroke="#D1E8F7" stroke-width="0.8497" stroke-miterlimit="10"/>
<path d="M244.741 120.647C248.555 120.647 251.635 117.374 251.635 113.322C251.635 109.27 248.555 105.997 244.741 105.997C240.928 105.997 237.847 109.27 237.847 113.322C237.847 117.374 240.928 120.647 244.741 120.647Z" fill="#E94D52"/>
<path d="M211.132 242.156C213.993 242.156 216.303 239.653 216.303 236.555C216.303 233.456 213.993 230.953 211.132 230.953C208.272 230.953 205.962 233.456 205.962 236.555C205.962 239.653 208.272 242.156 211.132 242.156Z" fill="url(#paint1_linear_55_2406)" fill-opacity="0.8"/>
<path d="M198.701 213.554L176.133 196.329C176.133 196.329 165.309 166.093 162.74 164.81C160.171 163.527 144.026 166.642 142.925 166.642C141.824 166.642 128.247 170.857 125.128 171.224C122.009 171.59 109.349 170.124 109.349 170.124L97.2402 213.554L110.634 218.135C110.634 218.135 143.659 240.492 154.851 245.806C166.226 251.12 165.859 241.225 165.859 241.225L167.51 242.507C170.079 244.523 173.932 243.973 175.766 241.408C177.418 239.209 177.418 236.277 175.766 234.078L177.785 235.727C181.087 238.293 185.857 237.926 188.426 234.628C190.811 231.512 190.444 227.114 187.509 224.366L189.71 226.198C193.013 228.764 197.783 228.397 200.535 225.099C203.287 221.617 202.003 216.119 198.701 213.554Z" fill="url(#paint2_linear_55_2406)"/>
<path d="M121.826 218.319C123.844 221.8 123.11 226.015 120.358 227.664C117.423 229.313 113.57 227.664 111.551 224.366C109.533 220.884 110.267 216.669 113.019 215.02C115.771 213.371 119.808 214.837 121.826 218.319Z" fill="url(#paint3_linear_55_2406)"/>
<path d="M84.3975 215.753L95.7728 218.868L111.184 163.527L99.8091 160.412L84.3975 215.753Z" fill="url(#paint4_linear_55_2406)"/>
<path d="M0 187.375C0 191.081 2.36972 194.372 5.88464 195.548L74.1489 218.376C78.825 219.939 83.8573 217.268 85.1825 212.519L99.2399 162.139C100.481 157.691 97.9954 153.055 93.6037 151.627L11.282 124.865C5.71372 123.054 0 127.205 0 133.06V187.375Z" fill="url(#paint5_linear_55_2406)"/>
<path d="M227.689 215.203L216.314 218.319L200.719 162.978L212.094 159.862L227.689 215.203Z" fill="url(#paint6_linear_55_2406)"/>
<path d="M312.821 191.576C312.821 195.463 310.218 198.87 306.466 199.891L237.609 218.633C233.035 219.878 228.314 217.195 227.043 212.629L212.844 161.602C211.605 157.148 214.1 152.511 218.499 151.091L301.556 124.283C307.121 122.487 312.821 126.636 312.821 132.484V191.576Z" fill="url(#paint7_linear_55_2406)"/>
<path d="M164.758 188.449C164.758 188.449 156.502 203.842 153.016 208.606C149.714 213.371 137.971 216.12 137.054 206.774C136.32 197.428 151.548 184.417 151.548 184.417L164.758 188.449Z" fill="url(#paint8_linear_55_2406)"/>
<path d="M202.37 168.841C202.37 168.841 198.334 170.124 193.013 169.757C187.692 169.208 183.105 166.642 181.087 165.726C178.886 164.81 175.767 162.428 172.097 162.061C168.428 161.695 167.877 162.244 166.409 162.794C165.125 163.344 161.272 165.909 160.905 166.276C160.538 166.642 152.282 170.857 150.631 171.407C148.98 171.956 147.512 171.773 144.76 173.972C142.008 175.988 136.136 195.229 136.136 195.229L133.935 202.009C133.935 202.009 131.55 207.324 136.687 209.889C141.824 212.454 149.346 206.774 150.08 206.041C151.732 204.208 158.52 191.931 159.621 189.732C159.804 189.548 159.988 189.365 160.171 189.182C160.905 188.632 162.74 187.533 164.758 188.082L198.701 213.004L213.378 207.507L202.37 168.841Z" fill="url(#paint9_linear_55_2406)"/>
<path d="M164.758 188.449L206.407 210.622L198.701 213.554L164.758 188.449Z" fill="url(#paint10_linear_55_2406)"/>
<path d="M202.37 168.841L213.195 208.057L210.076 209.156L199.068 169.574L202.37 168.841Z" fill="url(#paint11_linear_55_2406)"/>
<path d="M109.533 169.941L97.2402 213.371L101.644 214.837L112.835 170.307L109.533 169.941Z" fill="url(#paint12_linear_55_2406)"/>
<path d="M150.264 250.021C150.264 250.021 141.641 251.487 141.641 244.707C141.641 237.926 148.613 240.675 148.613 240.675C148.613 240.675 152.832 241.042 153.933 243.79C154.851 246.722 152.832 249.288 150.264 250.021Z" fill="url(#paint13_linear_55_2406)"/>
<path d="M133.568 241.041C133.568 241.041 132.284 238.476 133.201 237.743C134.302 237.01 138.155 231.329 138.155 231.329C138.155 231.329 145.677 230.229 148.613 234.078C151.365 237.926 148.796 240.675 148.796 240.675C148.796 240.675 144.393 245.256 139.989 244.523C135.586 243.973 133.568 241.041 133.568 241.041Z" fill="url(#paint14_linear_55_2406)"/>
<path d="M137.971 230.962C137.971 230.962 137.971 230.779 137.971 230.596C135.77 223.632 122.376 225.465 122.376 225.465C122.009 226.381 121.275 227.114 120.358 227.664C119.624 235.544 124.028 237.193 125.862 237.926C126.78 238.292 130.082 238.659 132.834 237.743C135.953 236.826 138.889 234.627 137.971 230.962Z" fill="url(#paint15_linear_55_2406)"/>
<path d="M121.826 218.319C123.844 221.8 123.11 226.015 120.358 227.664C117.423 229.313 113.57 227.664 111.551 224.366C109.533 220.884 110.267 216.669 113.019 215.02C115.771 213.371 119.808 214.837 121.826 218.319Z" fill="url(#paint16_linear_55_2406)"/>
<g clip-path="url(#clip0_55_2406)">
<path d="M65.9592 24.2954C66.4199 23.7442 66.7542 23.1516 67.1302 22.4322C75.168 23.1021 81.0942 32.7708 89.841 20.611C89.6746 21.1182 90.0073 20.1037 89.841 20.611C78.4929 45.8226 65.8323 46.4455 65.8323 46.4455L31.6956 52.8061C31.6956 52.8061 50.9834 46.9126 65.9592 24.2954Z" fill="url(#paint17_linear_55_2406)" stroke="white" stroke-width="0.646324" stroke-miterlimit="10" stroke-linecap="round" stroke-linejoin="round"/>
<path d="M28.4044 27.8492C51.9452 34.1656 69.6189 35.3273 89.9674 20.6522C76.543 53.0482 44.5577 60.9571 11.0131 56.9778C19.4846 49.9245 25.7984 39.6353 28.4044 27.8492Z" fill="url(#paint18_linear_55_2406)" stroke="white" stroke-width="0.646324" stroke-miterlimit="10" stroke-linecap="round" stroke-linejoin="round"/>
<path d="M84.8277 29.922C82.1819 31.1611 81.4974 28.1275 81.4974 28.1275C81.4974 28.1275 56.5454 38.0623 39.4908 33.7328C39.4908 33.7328 35.1351 38.9055 29.4823 34.8042C27.1306 47.0951 19.4141 53.5533 19.4141 53.5533C23.8769 54.4552 25.6987 57.8618 25.6987 57.8618" stroke="white" stroke-width="0.646324" stroke-miterlimit="10" stroke-linecap="round" stroke-linejoin="round"/>
<path d="M52.5215 50.6391C59.1928 50.1815 64.4355 47.3077 64.2313 44.2202C64.0272 41.1328 58.4535 39.0009 51.7822 39.4585C45.1108 39.9161 39.8681 42.79 40.0723 45.8774C40.2765 48.9648 45.8502 51.0967 52.5215 50.6391Z" stroke="white" stroke-width="0.646324" stroke-miterlimit="10" stroke-linecap="round" stroke-linejoin="round"/>
</g>
<g clip-path="url(#clip1_55_2406)">
<path d="M284.817 38.7538L290.396 42.7469C284.197 40.136 277.688 38.293 271.025 37.5251C275.209 37.0644 279.858 37.5251 284.817 38.7538ZM249.02 65.477C238.637 66.3985 228.409 68.5487 218.491 71.7739C221.591 44.8971 246.695 34.7607 271.025 37.5251C260.022 38.7538 252.119 46.2793 249.02 65.477Z" fill="url(#paint19_linear_55_2406)" stroke="white" stroke-width="0.646324" stroke-miterlimit="10" stroke-linecap="round" stroke-linejoin="round"/>
<path d="M285.747 26.7744C301.243 25.3921 312.401 27.3887 323.404 32.9176C320.459 33.0712 317.67 33.532 314.881 34.1463C304.033 36.9108 293.96 42.1325 284.662 48.1222C280.168 44.7434 262.812 33.3784 238.792 42.2861C238.637 42.4397 256.458 29.6924 285.747 26.7744Z" fill="url(#paint20_linear_55_2406)" stroke="white" stroke-width="0.646324" stroke-miterlimit="10" stroke-linecap="round" stroke-linejoin="round"/>
<path d="M278.928 27.6958C291.635 30.3067 284.352 35.6821 255.528 33.9927M244.681 38.9073C266.996 34.7606 279.858 41.8254 279.858 41.8254C279.858 41.8254 284.972 39.5216 290.706 41.211C300.624 35.3749 308.217 33.8391 308.217 33.8391C308.217 33.8391 303.723 32.764 306.667 27.3887L244.681 38.9073Z" stroke="white" stroke-width="0.646324" stroke-miterlimit="10" stroke-linecap="round" stroke-linejoin="round"/>
<path d="M244.371 40.7502C225.62 50.1187 223.45 62.2516 223.45 62.2516C227.479 63.1731 226.24 66.8591 226.24 66.8591C226.24 66.8591 236.157 64.4018 242.201 63.4803C242.511 56.7227 247.47 59.7943 247.47 59.7943C247.47 59.7943 249.175 44.2826 259.867 39.2144" stroke="white" stroke-width="0.646324" stroke-miterlimit="10" stroke-linecap="round" stroke-linejoin="round"/>
<path d="M255.528 39.2144C248.71 43.5146 236.622 54.2654 238.637 48.2757C240.652 42.286 246.23 40.443 246.23 40.443" stroke="white" stroke-width="0.646324" stroke-miterlimit="10" stroke-linecap="round" stroke-linejoin="round"/>
</g>
<g clip-path="url(#clip2_55_2406)">
<path d="M209.453 275.601L205.139 273.639C209.689 274.581 214.347 274.96 218.966 274.591C216.191 275.462 212.979 275.771 209.453 275.601ZM230.146 252.705C237.061 250.693 243.706 247.869 249.997 244.358C251.487 262.989 235.826 273.214 218.966 274.591C226.259 272.288 230.611 266.131 230.146 252.705Z" fill="url(#paint21_linear_55_2406)" stroke="white" stroke-width="0.646324" stroke-miterlimit="10" stroke-linecap="round" stroke-linejoin="round"/>
<path d="M210.424 283.845C200.105 286.852 192.275 286.989 184.079 284.712C186.054 284.214 187.883 283.53 189.692 282.74C196.675 279.417 202.805 274.532 208.306 269.23C211.804 270.92 225.087 276.304 240.177 267.057C240.261 266.932 229.885 277.953 210.424 283.845Z" fill="url(#paint22_linear_55_2406)" stroke="white" stroke-width="0.646324" stroke-miterlimit="10" stroke-linecap="round" stroke-linejoin="round"/>
<path d="M214.922 282.309C205.96 282.237 210.179 277.621 229.941 274.915M236.637 270.134C222.066 275.926 212.404 272.856 212.404 272.856C212.404 272.856 209.246 275.101 205.134 274.722C199.191 280.003 194.25 282.058 194.25 282.058C194.25 282.058 197.439 282.187 196.162 286.223L236.637 270.134Z" stroke="white" stroke-width="0.646324" stroke-miterlimit="10" stroke-linecap="round" stroke-linejoin="round"/>
<path d="M236.601 268.844C248.059 259.988 247.908 251.475 247.908 251.475C245.054 251.388 245.402 248.724 245.402 248.724C245.402 248.724 239.008 251.715 235.035 253.147C235.728 257.769 231.956 256.35 231.956 256.35C231.956 256.35 232.873 267.091 226.303 271.955" stroke="white" stroke-width="0.646324" stroke-miterlimit="10" stroke-linecap="round" stroke-linejoin="round"/>
<path d="M229.244 271.375C233.291 267.549 240.047 258.648 239.482 262.976C238.917 267.305 235.382 269.3 235.382 269.3" stroke="white" stroke-width="0.646324" stroke-miterlimit="10" stroke-linecap="round" stroke-linejoin="round"/>
</g>
<g filter="url(#filter0_bi_55_2406)">
<path d="M259.06 131.85L64.4262 131.811C59.3272 131.811 56.0146 128.483 56.0147 123.743L56.0146 33.9534C56.4985 29.4786 59.4484 26.364 66.0638 25.853H260.351C265.45 25.853 269.209 29.4786 268.763 33.9207L268.871 123.663C268.871 128.403 263.965 131.889 259.06 131.85Z" fill="white" fill-opacity="0.1"/>
</g>
<path d="M69.8027 99.103H93.9321" stroke="white" stroke-width="3.44706" stroke-miterlimit="10" stroke-linecap="round"/>
<path d="M69.8027 109.444H93.9321" stroke="#FC4C4F" stroke-width="3.44706" stroke-miterlimit="10" stroke-linecap="round"/>
<path d="M69.8027 119.785H124.956" stroke="white" stroke-width="3.44706" stroke-miterlimit="10" stroke-linecap="round"/>
<path d="M103.848 75.6839C113.231 66.7016 114.179 52.4606 105.973 43.8703C97.7343 35.28 81.3552 34.8881 71.9396 43.8703C62.5567 52.8526 63.7337 67.8122 71.9396 76.4025C80.1782 84.9928 94.465 84.6661 103.848 75.6839Z" fill="url(#paint23_linear_55_2406)"/>
<path d="M90.2148 60.8223L105.09 74.3773C105.09 74.3773 108.49 70.7518 109.471 68.1387L90.2148 60.8223Z" fill="url(#paint24_linear_55_2406)"/>
<g filter="url(#filter1_bi_55_2406)">
<path d="M89.7886 33.1318L87.4079 58.5349C87.3713 58.9866 87.4445 59.4731 87.6643 59.8901C87.8841 60.3072 88.2503 60.6547 88.6532 60.8632L111.288 72.8175C111.324 72.7828 124.766 37.2325 89.7886 33.1318Z" fill="white" fill-opacity="0.04"/>
</g>
<path d="M170.764 106.865C169.882 106.871 169.007 106.715 168.182 106.405C160.991 103.732 153.634 101.079 146.314 98.5353C146.192 98.4977 146.079 98.4361 145.981 98.3543C145.883 98.2725 145.803 98.172 145.745 98.0587C145.686 97.9455 145.651 97.8217 145.641 97.6947C145.631 97.5677 145.647 97.44 145.687 97.3191C145.726 97.1967 145.79 97.0833 145.873 96.9855C145.957 96.8877 146.059 96.8074 146.174 96.7492C146.289 96.691 146.414 96.656 146.542 96.6462C146.671 96.6365 146.8 96.6522 146.922 96.6925C154.298 99.2541 161.673 101.908 168.828 104.58C169.722 104.905 170.684 105.004 171.626 104.869C172.568 104.734 173.463 104.369 174.23 103.806C178.729 100.765 183.265 97.5955 187.691 94.3704C188.834 93.4514 190.225 92.8939 191.687 92.7691C193.148 92.6444 194.614 92.9581 195.896 93.6701C201.114 96.5819 206.333 99.5858 211.422 102.608C212.261 103.115 213.229 103.371 214.209 103.345C215.19 103.318 216.142 103.012 216.954 102.461C228.515 95.3103 240.002 87.5886 251.121 79.4614C251.307 79.3206 251.542 79.259 251.773 79.2901C252.004 79.3212 252.214 79.4424 252.357 79.6273C252.496 79.8157 252.559 80.0502 252.531 80.283C252.504 80.5159 252.389 80.7295 252.209 80.8804C241.146 89.0444 229.529 96.803 217.931 103.972C216.824 104.706 215.531 105.111 214.203 105.141C212.874 105.17 211.565 104.822 210.426 104.138C205.355 101.134 200.137 98.1299 194.937 95.2181C193.956 94.6929 192.841 94.4687 191.732 94.5736C190.624 94.6785 189.571 95.1078 188.705 95.8079C184.261 99.0329 179.725 102.221 175.189 105.28C173.906 106.24 172.364 106.792 170.764 106.865Z" fill="white"/>
<path d="M248.208 117.406C248.082 117.411 247.957 117.387 247.842 117.335C247.727 117.284 247.625 117.208 247.544 117.112C238.417 107.344 228.884 97.8902 219.185 88.9706C218.271 88.0698 217.061 87.5306 215.779 87.4527C214.498 87.3748 213.232 87.7634 212.215 88.5467C207.015 92.1404 201.686 95.6603 196.376 99.0328C195.033 99.9301 193.432 100.362 191.82 100.262C190.208 100.162 188.673 99.5361 187.451 98.4799C183.948 95.5681 180.371 92.6564 176.812 89.8367C176.193 89.3355 175.477 88.9684 174.709 88.759C173.941 88.5496 173.137 88.5024 172.35 88.6205C164.052 89.9842 155.625 91.2558 147.309 92.3062C147.189 92.3246 147.067 92.319 146.949 92.29C146.832 92.261 146.721 92.2091 146.623 92.1372C146.526 92.0653 146.443 91.9748 146.38 91.871C146.318 91.7672 146.276 91.6521 146.258 91.5322C146.227 91.2882 146.292 91.0416 146.44 90.8452C146.588 90.6488 146.808 90.5183 147.051 90.4818C155.349 89.3576 163.757 88.086 172.055 86.796C173.096 86.626 174.161 86.6811 175.179 86.9577C176.197 87.2343 177.143 87.7259 177.955 88.3993C181.532 91.2189 185.128 94.1307 188.631 97.0609C189.554 97.8692 190.72 98.3477 191.945 98.4211C193.171 98.4945 194.385 98.1586 195.398 97.4663C200.672 94.1123 205.982 90.6108 211.164 87.0356C212.52 86.0265 214.191 85.5302 215.878 85.6348C217.566 85.7394 219.162 86.4381 220.383 87.6069C230.119 96.5633 239.708 106.036 248.853 115.858C249.023 116.034 249.119 116.268 249.119 116.513C249.119 116.757 249.023 116.992 248.853 117.167C248.767 117.248 248.666 117.311 248.555 117.352C248.444 117.393 248.326 117.412 248.208 117.406Z" fill="url(#paint25_linear_55_2406)"/>
<circle cx="154.256" cy="58.5999" r="3.44706" fill="#73FFF2"/>
<g filter="url(#filter2_bi_55_2406)">
<circle cx="154.256" cy="58.5998" r="5.17059" fill="white" fill-opacity="0.2"/>
<circle cx="154.256" cy="58.5998" r="5.17059" fill="url(#paint26_linear_55_2406)" fill-opacity="0.2"/>
</g>
<circle cx="175.8" cy="58.5999" r="3.44706" fill="#73FFF2"/>
<g filter="url(#filter3_bi_55_2406)">
<circle cx="175.8" cy="58.5998" r="5.17059" fill="white" fill-opacity="0.2"/>
<circle cx="175.8" cy="58.5998" r="5.17059" fill="url(#paint27_linear_55_2406)" fill-opacity="0.2"/>
</g>
<circle cx="198.206" cy="58.5999" r="3.44706" fill="#73FFF2"/>
<g filter="url(#filter4_bi_55_2406)">
<circle cx="198.206" cy="58.5998" r="5.17059" fill="white" fill-opacity="0.2"/>
<circle cx="198.206" cy="58.5998" r="5.17059" fill="url(#paint28_linear_55_2406)" fill-opacity="0.2"/>
</g>
<defs>
<filter id="filter0_bi_55_2406" x="50.9267" y="20.7651" width="223.032" height="116.173" filterUnits="userSpaceOnUse" color-interpolation-filters="sRGB">
<feFlood flood-opacity="0" result="BackgroundImageFix"/>
<feGaussianBlur in="BackgroundImageFix" stdDeviation="2.54395"/>
<feComposite in2="SourceAlpha" operator="in" result="effect1_backgroundBlur_55_2406"/>
<feBlend mode="normal" in="SourceGraphic" in2="effect1_backgroundBlur_55_2406" result="shape"/>
<feColorMatrix in="SourceAlpha" type="matrix" values="0 0 0 0 0 0 0 0 0 0 0 0 0 0 0 0 0 0 127 0" result="hardAlpha"/>
<feOffset dy="1.01758"/>
<feGaussianBlur stdDeviation="1.01758"/>
<feComposite in2="hardAlpha" operator="arithmetic" k2="-1" k3="1"/>
<feColorMatrix type="matrix" values="0 0 0 0 0.9375 0 0 0 0 0.910156 0 0 0 0 0.910156 0 0 0 0.6 0"/>
<feBlend mode="normal" in2="shape" result="effect2_innerShadow_55_2406"/>
</filter>
<filter id="filter1_bi_55_2406" x="82.311" y="28.0439" width="36.6329" height="49.8614" filterUnits="userSpaceOnUse" color-interpolation-filters="sRGB">
<feFlood flood-opacity="0" result="BackgroundImageFix"/>
<feGaussianBlur in="BackgroundImageFix" stdDeviation="2.54395"/>
<feComposite in2="SourceAlpha" operator="in" result="effect1_backgroundBlur_55_2406"/>
<feBlend mode="normal" in="SourceGraphic" in2="effect1_backgroundBlur_55_2406" result="shape"/>
<feColorMatrix in="SourceAlpha" type="matrix" values="0 0 0 0 0 0 0 0 0 0 0 0 0 0 0 0 0 0 127 0" result="hardAlpha"/>
<feOffset dy="1.01758"/>
<feGaussianBlur stdDeviation="1.01758"/>
<feComposite in2="hardAlpha" operator="arithmetic" k2="-1" k3="1"/>
<feColorMatrix type="matrix" values="0 0 0 0 0.9375 0 0 0 0 0.910156 0 0 0 0 0.910156 0 0 0 0.6 0"/>
<feBlend mode="normal" in2="shape" result="effect2_innerShadow_55_2406"/>
</filter>
<filter id="filter2_bi_55_2406" x="147.362" y="51.7057" width="13.7884" height="13.7884" filterUnits="userSpaceOnUse" color-interpolation-filters="sRGB">
<feFlood flood-opacity="0" result="BackgroundImageFix"/>
<feGaussianBlur in="BackgroundImageFix" stdDeviation="0.861765"/>
<feComposite in2="SourceAlpha" operator="in" result="effect1_backgroundBlur_55_2406"/>
<feBlend mode="normal" in="SourceGraphic" in2="effect1_backgroundBlur_55_2406" result="shape"/>
<feColorMatrix in="SourceAlpha" type="matrix" values="0 0 0 0 0 0 0 0 0 0 0 0 0 0 0 0 0 0 127 0" result="hardAlpha"/>
<feOffset dy="0.861765"/>
<feGaussianBlur stdDeviation="0.861765"/>
<feComposite in2="hardAlpha" operator="arithmetic" k2="-1" k3="1"/>
<feColorMatrix type="matrix" values="0 0 0 0 0.9375 0 0 0 0 0.910156 0 0 0 0 0.910156 0 0 0 0.6 0"/>
<feBlend mode="normal" in2="shape" result="effect2_innerShadow_55_2406"/>
</filter>
<filter id="filter3_bi_55_2406" x="168.906" y="51.7057" width="13.7884" height="13.7884" filterUnits="userSpaceOnUse" color-interpolation-filters="sRGB">
<feFlood flood-opacity="0" result="BackgroundImageFix"/>
<feGaussianBlur in="BackgroundImageFix" stdDeviation="0.861765"/>
<feComposite in2="SourceAlpha" operator="in" result="effect1_backgroundBlur_55_2406"/>
<feBlend mode="normal" in="SourceGraphic" in2="effect1_backgroundBlur_55_2406" result="shape"/>
<feColorMatrix in="SourceAlpha" type="matrix" values="0 0 0 0 0 0 0 0 0 0 0 0 0 0 0 0 0 0 127 0" result="hardAlpha"/>
<feOffset dy="0.861765"/>
<feGaussianBlur stdDeviation="0.861765"/>
<feComposite in2="hardAlpha" operator="arithmetic" k2="-1" k3="1"/>
<feColorMatrix type="matrix" values="0 0 0 0 0.9375 0 0 0 0 0.910156 0 0 0 0 0.910156 0 0 0 0.6 0"/>
<feBlend mode="normal" in2="shape" result="effect2_innerShadow_55_2406"/>
</filter>
<filter id="filter4_bi_55_2406" x="191.312" y="51.7057" width="13.7884" height="13.7884" filterUnits="userSpaceOnUse" color-interpolation-filters="sRGB">
<feFlood flood-opacity="0" result="BackgroundImageFix"/>
<feGaussianBlur in="BackgroundImageFix" stdDeviation="0.861765"/>
<feComposite in2="SourceAlpha" operator="in" result="effect1_backgroundBlur_55_2406"/>
<feBlend mode="normal" in="SourceGraphic" in2="effect1_backgroundBlur_55_2406" result="shape"/>
<feColorMatrix in="SourceAlpha" type="matrix" values="0 0 0 0 0 0 0 0 0 0 0 0 0 0 0 0 0 0 127 0" result="hardAlpha"/>
<feOffset dy="0.861765"/>
<feGaussianBlur stdDeviation="0.861765"/>
<feComposite in2="hardAlpha" operator="arithmetic" k2="-1" k3="1"/>
<feColorMatrix type="matrix" values="0 0 0 0 0.9375 0 0 0 0 0.910156 0 0 0 0 0.910156 0 0 0 0.6 0"/>
<feBlend mode="normal" in2="shape" result="effect2_innerShadow_55_2406"/>
</filter>
<linearGradient id="paint0_linear_55_2406" x1="289.305" y1="169.68" x2="290.655" y2="150.106" gradientUnits="userSpaceOnUse">
<stop offset="0.125" stop-color="#7311C6"/>
<stop offset="0.802083" stop-color="#8469D1"/>
</linearGradient>
<linearGradient id="paint1_linear_55_2406" x1="213.695" y1="244.885" x2="214.955" y2="229.006" gradientUnits="userSpaceOnUse">
<stop offset="0.125" stop-color="#7311C6"/>
<stop offset="0.802083" stop-color="#8469D1"/>
</linearGradient>
<linearGradient id="paint2_linear_55_2406" x1="145.89" y1="236.842" x2="154.077" y2="195.395" gradientUnits="userSpaceOnUse">
<stop stop-color="#F6CFBE"/>
<stop offset="1" stop-color="#FFE8E1"/>
</linearGradient>
<linearGradient id="paint3_linear_55_2406" x1="110.39" y1="221.336" x2="123.002" y2="221.336" gradientUnits="userSpaceOnUse">
<stop stop-color="#FCEEEA"/>
<stop offset="0.285" stop-color="#FCEBE8"/>
<stop offset="0.508" stop-color="#FDE1E0"/>
<stop offset="0.709" stop-color="#FDD1D3"/>
<stop offset="0.896" stop-color="#FEB9C1"/>
<stop offset="1" stop-color="#FFA9B4"/>
</linearGradient>
<linearGradient id="paint4_linear_55_2406" x1="123.33" y1="108.995" x2="79.4499" y2="247.899" gradientUnits="userSpaceOnUse">
<stop stop-color="white"/>
<stop offset="0.35" stop-color="#FDFEFF"/>
<stop offset="0.497" stop-color="#F6F9FF"/>
<stop offset="0.607" stop-color="#E9F0FF"/>
<stop offset="0.697" stop-color="#D8E4FF"/>
<stop offset="0.776" stop-color="#C1D4FF"/>
<stop offset="0.846" stop-color="#A4C1FF"/>
<stop offset="0.911" stop-color="#83AAFF"/>
<stop offset="0.969" stop-color="#5D90FF"/>
<stop offset="1" stop-color="#4580FF"/>
</linearGradient>
<linearGradient id="paint5_linear_55_2406" x1="75.8693" y1="245.626" x2="86.1287" y2="103.656" gradientUnits="userSpaceOnUse">
<stop stop-color="#2C90F7"/>
<stop offset="1" stop-color="#05C0CC"/>
</linearGradient>
<linearGradient id="paint6_linear_55_2406" x1="188.778" y1="108.559" x2="232.659" y2="247.465" gradientUnits="userSpaceOnUse">
<stop stop-color="white"/>
<stop offset="0.35" stop-color="#FDFEFF"/>
<stop offset="0.497" stop-color="#F6F9FF"/>
<stop offset="0.607" stop-color="#E9F0FF"/>
<stop offset="0.697" stop-color="#D8E4FF"/>
<stop offset="0.776" stop-color="#C1D4FF"/>
<stop offset="0.846" stop-color="#A4C1FF"/>
<stop offset="0.911" stop-color="#83AAFF"/>
<stop offset="0.969" stop-color="#5D90FF"/>
<stop offset="1" stop-color="#4580FF"/>
</linearGradient>
<linearGradient id="paint7_linear_55_2406" x1="287.045" y1="245.304" x2="297.268" y2="103.067" gradientUnits="userSpaceOnUse">
<stop stop-color="#2C90F7"/>
<stop offset="1" stop-color="#05C0CC"/>
</linearGradient>
<linearGradient id="paint8_linear_55_2406" x1="159.577" y1="218.189" x2="140.859" y2="175.085" gradientUnits="userSpaceOnUse">
<stop stop-color="#F6CFBE"/>
<stop offset="1" stop-color="#FFE8E1"/>
</linearGradient>
<linearGradient id="paint9_linear_55_2406" x1="159.142" y1="181.853" x2="207.627" y2="217.733" gradientUnits="userSpaceOnUse">
<stop stop-color="#BF8E80"/>
<stop offset="1" stop-color="#855D53"/>
</linearGradient>
<linearGradient id="paint10_linear_55_2406" x1="183.065" y1="204.154" x2="185.259" y2="200.112" gradientUnits="userSpaceOnUse">
<stop stop-color="#855D53"/>
<stop offset="1" stop-color="#855D53" stop-opacity="0"/>
</linearGradient>
<linearGradient id="paint11_linear_55_2406" x1="207.732" y1="188.43" x2="204.479" y2="189.398" gradientUnits="userSpaceOnUse">
<stop stop-color="#855D53"/>
<stop offset="1" stop-color="#855D53" stop-opacity="0"/>
</linearGradient>
<linearGradient id="paint12_linear_55_2406" x1="103.215" y1="191.631" x2="108.841" y2="192.921" gradientUnits="userSpaceOnUse">
<stop stop-color="#F6CFBE"/>
<stop offset="1" stop-color="#FFE8E1" stop-opacity="0"/>
</linearGradient>
<linearGradient id="paint13_linear_55_2406" x1="132.033" y1="254.123" x2="157.43" y2="239.234" gradientUnits="userSpaceOnUse">
<stop stop-color="#BF8E80"/>
<stop offset="1" stop-color="#855D53"/>
</linearGradient>
<linearGradient id="paint14_linear_55_2406" x1="124.573" y1="252.561" x2="151.346" y2="229.065" gradientUnits="userSpaceOnUse">
<stop stop-color="#BF8E80"/>
<stop offset="1" stop-color="#855D53"/>
</linearGradient>
<linearGradient id="paint15_linear_55_2406" x1="103.533" y1="253.478" x2="136.707" y2="224.214" gradientUnits="userSpaceOnUse">
<stop stop-color="#BF8E80"/>
<stop offset="1" stop-color="#855D53"/>
</linearGradient>
<linearGradient id="paint16_linear_55_2406" x1="98.0569" y1="227.31" x2="125.409" y2="218.523" gradientUnits="userSpaceOnUse">
<stop stop-color="#BF8E80"/>
<stop offset="1" stop-color="#855D53"/>
</linearGradient>
<linearGradient id="paint17_linear_55_2406" x1="60.1128" y1="74.6556" x2="86.912" y2="10.5485" gradientUnits="userSpaceOnUse">
<stop stop-color="#2C90F7"/>
<stop offset="1" stop-color="#05C0CC"/>
</linearGradient>
<linearGradient id="paint18_linear_55_2406" x1="51.7861" y1="85.5093" x2="83.3708" y2="7.52825" gradientUnits="userSpaceOnUse">
<stop stop-color="#2C90F7"/>
<stop offset="1" stop-color="#05C0CC"/>
</linearGradient>
<linearGradient id="paint19_linear_55_2406" x1="272.259" y1="80.2249" x2="274.006" y2="30.809" gradientUnits="userSpaceOnUse">
<stop stop-color="#2C90F7"/>
<stop offset="1" stop-color="#05C0CC"/>
</linearGradient>
<linearGradient id="paint20_linear_55_2406" x1="302.062" y1="53.4261" x2="302.647" y2="22.3847" gradientUnits="userSpaceOnUse">
<stop stop-color="#2C90F7"/>
<stop offset="1" stop-color="#05C0CC"/>
</linearGradient>
<linearGradient id="paint21_linear_55_2406" x1="212.424" y1="245.814" x2="217.842" y2="279.541" gradientUnits="userSpaceOnUse">
<stop stop-color="#2C90F7"/>
<stop offset="1" stop-color="#05C0CC"/>
</linearGradient>
<linearGradient id="paint22_linear_55_2406" x1="195.804" y1="267.96" x2="199.555" y2="289.078" gradientUnits="userSpaceOnUse">
<stop stop-color="#2C90F7"/>
<stop offset="1" stop-color="#05C0CC"/>
</linearGradient>
<linearGradient id="paint23_linear_55_2406" x1="87.5684" y1="37.1431" x2="97.8096" y2="133.373" gradientUnits="userSpaceOnUse">
<stop stop-color="#2C90F7"/>
<stop offset="1" stop-color="#94B9FF"/>
</linearGradient>
<linearGradient id="paint24_linear_55_2406" x1="99.5709" y1="60.7892" x2="101.779" y2="89.721" gradientUnits="userSpaceOnUse">
<stop stop-color="white"/>
<stop offset="1" stop-color="#94B9FF"/>
</linearGradient>
<linearGradient id="paint25_linear_55_2406" x1="223.172" y1="125.151" x2="224.199" y2="79.8364" gradientUnits="userSpaceOnUse">
<stop stop-color="#2C90F7"/>
<stop offset="1" stop-color="#05C0CC"/>
</linearGradient>
<linearGradient id="paint26_linear_55_2406" x1="162.381" y1="64.509" x2="146.342" y2="53.4292" gradientUnits="userSpaceOnUse">
<stop stop-color="#82E8FF"/>
<stop offset="1" stop-color="#379FFF"/>
</linearGradient>
<linearGradient id="paint27_linear_55_2406" x1="183.925" y1="64.509" x2="167.886" y2="53.4292" gradientUnits="userSpaceOnUse">
<stop stop-color="#82E8FF"/>
<stop offset="1" stop-color="#379FFF"/>
</linearGradient>
<linearGradient id="paint28_linear_55_2406" x1="206.331" y1="64.509" x2="190.292" y2="53.4292" gradientUnits="userSpaceOnUse">
<stop stop-color="#82E8FF"/>
<stop offset="1" stop-color="#379FFF"/>
</linearGradient>
<clipPath id="clip0_55_2406">
<rect width="64.6324" height="60.3235" fill="white" transform="translate(29.1411) rotate(18.1586)"/>
</clipPath>
<clipPath id="clip1_55_2406">
<rect width="105.997" height="46.5353" fill="white" transform="translate(218.026 25.853)"/>
</clipPath>
<clipPath id="clip2_55_2406">
<rect width="73.2273" height="32.1486" fill="white" transform="translate(256.448 275.421) rotate(168.849)"/>
</clipPath>
</defs>
</svg>
